<svg xmlns="http://www.w3.org/2000/svg" xmlns:xlink="http://www.w3.org/1999/xlink" width="247" zoomAndPan="magnify" viewBox="0 0 185.25 184.499993" height="246" preserveAspectRatio="xMidYMid meet" version="1.0"><defs><clipPath id="id1"><path d="M 74.96875 74.871094 L 110.078125 74.871094 L 110.078125 109.230469 L 74.96875 109.230469 Z M 74.96875 74.871094 " clip-rule="nonzero"/></clipPath><clipPath id="id2"><path d="M 80.679688 81.800781 L 103.835938 81.800781 L 103.835938 101.222656 L 80.679688 101.222656 Z M 80.679688 81.800781 " clip-rule="nonzero"/></clipPath><clipPath id="id3"><path d="M 83.15625 84.003906 L 101.082031 84.003906 L 101.082031 98.945312 L 83.15625 98.945312 Z M 83.15625 84.003906 " clip-rule="nonzero"/></clipPath></defs><g clip-path="url(#id1)"><path fill="#545454" d="M 92.523438 74.871094 C 82.832031 74.871094 74.972656 82.5625 74.972656 92.050781 C 74.972656 101.539062 82.832031 109.230469 92.523438 109.230469 C 102.214844 109.230469 110.074219 101.539062 110.074219 92.050781 C 110.074219 82.5625 102.214844 74.871094 92.523438 74.871094 " fill-opacity="1" fill-rule="nonzero"/></g><g clip-path="url(#id2)"><path fill="#7ed957" d="M 80.679688 81.800781 L 103.832031 81.800781 L 103.832031 101.222656 L 80.679688 101.222656 L 80.679688 81.800781 " fill-opacity="1" fill-rule="nonzero"/></g><g clip-path="url(#id3)"><path fill="#545454" d="M 83.15625 84.007812 L 101.082031 84.007812 L 101.082031 98.945312 L 83.15625 98.945312 L 83.15625 84.007812 " fill-opacity="1" fill-rule="nonzero"/></g></svg>