<svg xmlns="http://www.w3.org/2000/svg" xmlns:xlink="http://www.w3.org/1999/xlink" width="247" zoomAndPan="magnify" viewBox="0 0 185.25 184.499993" height="246" preserveAspectRatio="xMidYMid meet" version="1.0"><defs><clipPath id="id1"><path d="M 75.292969 74.871094 L 109.65625 74.871094 L 109.65625 108.609375 L 75.292969 108.609375 Z M 75.292969 74.871094 " clip-rule="nonzero"/></clipPath><clipPath id="id2"><path d="M 79.394531 78.5 L 105.707031 78.5 L 105.707031 104.8125 L 79.394531 104.8125 Z M 79.394531 78.5 " clip-rule="nonzero"/></clipPath></defs><g clip-path="url(#id1)"><path fill="#545454" d="M 92.472656 74.871094 C 82.988281 74.871094 75.292969 82.421875 75.292969 91.738281 C 75.292969 101.058594 82.988281 108.609375 92.472656 108.609375 C 101.960938 108.609375 109.652344 101.058594 109.652344 91.738281 C 109.652344 82.421875 101.960938 74.871094 92.472656 74.871094 " fill-opacity="1" fill-rule="nonzero"/></g><g clip-path="url(#id2)"><path fill="#ff5757" d="M 92.550781 78.5 C 85.28125 78.5 79.394531 84.386719 79.394531 91.65625 C 79.394531 98.925781 85.28125 104.8125 92.550781 104.8125 C 99.820312 104.8125 105.707031 98.925781 105.707031 91.65625 C 105.707031 84.386719 99.820312 78.5 92.550781 78.5 Z M 92.550781 102.179688 C 86.738281 102.179688 82.027344 97.46875 82.027344 91.65625 C 82.027344 85.839844 86.738281 81.128906 92.550781 81.128906 C 98.367188 81.128906 103.078125 85.839844 103.078125 91.65625 C 103.078125 97.46875 98.367188 102.179688 92.550781 102.179688 Z M 92.550781 102.179688 " fill-opacity="1" fill-rule="nonzero"/></g></svg>