<svg xmlns="http://www.w3.org/2000/svg" xmlns:xlink="http://www.w3.org/1999/xlink" width="247" zoomAndPan="magnify" viewBox="0 0 185.25 185.249996" height="247" preserveAspectRatio="xMidYMid meet" version="1.0"><defs><clipPath id="id1"><path d="M 74.96875 75.40625 L 109.773438 75.40625 L 109.773438 109.582031 L 74.96875 109.582031 Z M 74.96875 75.40625 " clip-rule="nonzero"/></clipPath><clipPath id="id2"><path d="M 81.488281 82 L 103 82 L 103 103 L 81.488281 103 Z M 81.488281 82 " clip-rule="nonzero"/></clipPath></defs><g clip-path="url(#id1)"><path fill="#545454" d="M 92.371094 75.40625 C 82.761719 75.40625 74.96875 83.054688 74.96875 92.492188 C 74.96875 101.929688 82.761719 109.582031 92.371094 109.582031 C 101.980469 109.582031 109.773438 101.929688 109.773438 92.492188 C 109.773438 83.054688 101.980469 75.40625 92.371094 75.40625 " fill-opacity="1" fill-rule="nonzero"/></g><g clip-path="url(#id2)"><path fill="#5ce1e6" d="M 95.234375 92.605469 L 102.058594 85.753906 C 102.871094 84.941406 102.871094 83.625 102.058594 82.808594 C 101.25 82 99.941406 82 99.128906 82.808594 L 92.304688 89.664062 L 85.476562 82.8125 C 84.667969 82 83.355469 82 82.546875 82.8125 C 81.738281 83.625 81.738281 84.941406 82.546875 85.753906 L 89.375 92.605469 L 82.53125 99.472656 C 81.722656 100.285156 81.722656 101.601562 82.53125 102.414062 C 82.933594 102.820312 83.464844 103.023438 83.996094 103.023438 C 84.527344 103.023438 85.058594 102.820312 85.460938 102.414062 L 92.304688 95.546875 L 99.128906 102.398438 C 99.535156 102.804688 100.0625 103.007812 100.59375 103.007812 C 101.125 103.007812 101.652344 102.804688 102.058594 102.398438 C 102.867188 101.585938 102.867188 100.269531 102.058594 99.457031 Z M 95.234375 92.605469 " fill-opacity="1" fill-rule="nonzero"/></g></svg>