<svg xmlns="http://www.w3.org/2000/svg" xmlns:xlink="http://www.w3.org/1999/xlink" width="246" zoomAndPan="magnify" viewBox="0 0 184.5 183.000001" height="244" preserveAspectRatio="xMidYMid meet" version="1.0"><defs><clipPath id="id1"><path d="M 75.558594 74.945312 L 108.847656 74.945312 L 108.847656 107.632812 L 75.558594 107.632812 Z M 75.558594 74.945312 " clip-rule="nonzero"/></clipPath><clipPath id="id2"><path d="M 79.828125 76.957031 L 104.722656 76.957031 L 104.722656 98.550781 L 79.828125 98.550781 Z M 79.828125 76.957031 " clip-rule="nonzero"/></clipPath><clipPath id="id3"><path d="M 84.460938 82.738281 L 100.054688 82.738281 L 100.054688 95.335938 L 84.460938 95.335938 Z M 84.460938 82.738281 " clip-rule="nonzero"/></clipPath></defs><g clip-path="url(#id1)"><path fill="#545454" d="M 92.203125 74.945312 C 83.011719 74.945312 75.558594 82.261719 75.558594 91.289062 C 75.558594 100.316406 83.011719 107.632812 92.203125 107.632812 C 101.398438 107.632812 108.847656 100.316406 108.847656 91.289062 C 108.847656 82.261719 101.398438 74.945312 92.203125 74.945312 " fill-opacity="1" fill-rule="nonzero"/></g><g clip-path="url(#id2)"><path fill="#ffde59" d="M 92.273438 76.957031 L 104.722656 98.550781 L 79.828125 98.550781 L 92.273438 76.957031 " fill-opacity="1" fill-rule="nonzero"/></g><g clip-path="url(#id3)"><path fill="#545454" d="M 92.257812 82.738281 L 100.054688 95.335938 L 84.460938 95.335938 L 92.257812 82.738281 " fill-opacity="1" fill-rule="nonzero"/></g></svg>